# xmcd CD database file
#
# Track frame offsets:
#	150
#	14250
#	33408
#	50114
#	63327
#	95013
#	121285
#	136025
#	160037
#	193609
#	211129
#	231744
#	254872
#
# Disc length: 3526 seconds
#
# Revision: 2
# Processed by: cddbd v1.5PL3 Copyright (c) Steve Scherf et al.
# Submitted via: CDex 1.51
#
DISCID=bc0dc40d
DTITLE=Popa Chubby  - Flashed Back
DYEAR=2001
DGENRE=Blues
TTITLE0=Fire
TTITLE1=Spooky
TTITLE2=And The Beat Goes On
TTITLE3=Somethin' Else
TTITLE4=Gloria
TTITLE5=Hey Joe
TTITLE6=Hip Hug Her
TTITLE7=We Gotta Get Out Of This place
TTITLE8=Low Rider
TTITLE9=These Boots Are Made For Walkin'
TTITLE10=Don't Let Me Be Misunderstood
TTITLE11=(Sittin' On) The Dock Of The Bay
TTITLE12=Walk Don't Run
EXTD=YEAR: 2001
EXTT0=
EXTT1=
EXTT2=
EXTT3=
EXTT4=
EXTT5=
EXTT6=
EXTT7=
EXTT8=
EXTT9=
EXTT10=
EXTT11=
EXTT12=
PLAYORDER=
